<svg width="37" height="37" viewBox="0 0 37 37" fill="none" xmlns="http://www.w3.org/2000/svg">
<path d="M18.4031 36.8C8.25625 36.8 0 28.5469 0 18.4C0 8.25313 8.25625 0 18.4031 0C23 0 27.4 1.70312 30.7969 4.79688L31.4156 5.3625L25.3469 11.4313L24.7844 10.95C23.0031 9.425 20.7375 8.58438 18.4031 8.58438C12.9906 8.58438 8.58438 12.9875 8.58438 18.4C8.58438 23.8125 12.9906 28.2156 18.4031 28.2156C22.3062 28.2156 25.3906 26.2219 26.8438 22.825H17.6031V14.5406L35.6437 14.5656L35.7781 15.2C36.7188 19.6656 35.9656 26.2344 32.1531 30.9344C28.9969 34.825 24.3719 36.8 18.4031 36.8Z" fill="#666666"/>
</svg>
