<svg width="96" height="32" viewBox="0 0 96 32" fill="none" xmlns="http://www.w3.org/2000/svg">
<path d="M39.909 23.4388V11.5201H35.0078V8.75024H48.3548L47.3155 10.3607L46.495 11.5201H43.4536V23.4388H39.909Z" fill="white"/>
<path d="M49.3281 23.4387V12.1496H52.5883V15.3391L52.1288 14.4158C52.4789 13.6184 53.0404 13.0169 53.8136 12.6112C54.5865 12.1915 55.5274 11.9817 56.6362 11.9817V15.0033C56.4901 14.9893 56.3588 14.9823 56.2423 14.9823C56.1255 14.9684 56.0016 14.9614 55.8703 14.9614C54.9366 14.9614 54.1782 15.2202 53.5948 15.7378C53.0259 16.2414 52.7415 17.0317 52.7415 18.1089V23.4387H49.3281Z" fill="white"/>
<path d="M64.6797 23.4387V21.2355L64.4609 20.7528V16.8079C64.4609 16.1085 64.2347 15.5629 63.7826 15.1712C63.345 14.7795 62.6667 14.5837 61.7477 14.5837C61.1203 14.5837 60.5005 14.6816 59.8879 14.8774C59.2897 15.0593 58.7791 15.3111 58.3563 15.6328L57.131 13.3456C57.7726 12.912 58.5458 12.5762 59.4503 12.3384C60.3545 12.1006 61.2735 11.9817 62.2072 11.9817C64.0014 11.9817 65.3944 12.3874 66.3864 13.1987C67.3781 14.0101 67.8742 15.2761 67.8742 16.9968V23.4387H64.6797ZM61.0913 23.6066C60.1723 23.6066 59.3846 23.4597 58.7282 23.166C58.0718 22.8582 57.5686 22.4455 57.2185 21.9279C56.8684 21.4103 56.6934 20.8298 56.6934 20.1863C56.6934 19.5148 56.861 18.9273 57.1966 18.4237C57.5467 17.92 58.0937 17.5284 58.8376 17.2486C59.5816 16.9548 60.5514 16.8079 61.7477 16.8079H64.8766V18.7174H62.1197C61.3172 18.7174 60.7631 18.8433 60.4568 19.0951C60.165 19.3469 60.0192 19.6617 60.0192 20.0394C60.0192 20.4591 60.1868 20.7948 60.5224 21.0466C60.8725 21.2844 61.3465 21.4033 61.9446 21.4033C62.5135 21.4033 63.0239 21.2774 63.4763 21.0256C63.9284 20.7598 64.2566 20.3751 64.4609 19.8715L64.986 21.3823C64.7379 22.1098 64.2858 22.6623 63.6294 23.04C62.973 23.4178 62.1268 23.6066 61.0913 23.6066Z" fill="white"/>
<path d="M76.3004 23.6066C75.0314 23.6066 73.901 23.3618 72.909 22.8722C71.9173 22.3686 71.1367 21.6761 70.5678 20.7948C70.0137 19.9135 69.7363 18.9133 69.7363 17.7941C69.7363 16.661 70.0137 15.6608 70.5678 14.7935C71.1367 13.9122 71.9173 13.2267 72.909 12.7371C73.901 12.2335 75.0314 11.9817 76.3004 11.9817C77.5405 11.9817 78.6198 12.2335 79.5387 12.7371C80.4577 13.2267 81.136 13.9332 81.5736 14.8564L78.9261 16.2204C78.6198 15.6888 78.2333 15.2971 77.7664 15.0453C77.3143 14.7935 76.8184 14.6676 76.2786 14.6676C75.6952 14.6676 75.17 14.7935 74.7032 15.0453C74.2366 15.2971 73.8646 15.6538 73.5873 16.1155C73.3247 16.5771 73.1934 17.1367 73.1934 17.7941C73.1934 18.4516 73.3247 19.0112 73.5873 19.4728C73.8646 19.9345 74.2366 20.2912 74.7032 20.543C75.17 20.7948 75.6952 20.9207 76.2786 20.9207C76.8184 20.9207 77.3143 20.8018 77.7664 20.564C78.2333 20.3122 78.6198 19.9135 78.9261 19.3679L81.5736 20.7528C81.136 21.6621 80.4577 22.3686 79.5387 22.8722C78.6198 23.3618 77.5405 23.6066 76.3004 23.6066Z" fill="white"/>
<path d="M85.8597 21.1305L85.9472 17.1437L91.4392 12.1496H95.5089L90.2357 17.2905L88.4634 18.6755L85.8597 21.1305ZM83.0371 23.4387V7.8689H86.4504V23.4387H83.0371ZM91.8111 23.4387L87.8289 18.6964L89.9732 16.1574L95.9465 23.4387H91.8111Z" fill="white"/>
<path d="M43.8037 11.7945L40.3887 9.77881L31.938 22.9463L35.3529 24.962L43.8037 11.7945Z" fill="#F8F9FA"/>
<path d="M47.2056 16.6157L48.6918 14.3C48.8501 14.0533 48.77 13.7302 48.5127 13.5783L41.308 9.32562C41.0507 9.17376 40.7138 9.25067 40.5554 9.4974L39.0692 11.8131C38.9109 12.0598 38.9911 12.383 39.2484 12.5348L46.453 16.7875C46.7103 16.9394 47.0472 16.8625 47.2056 16.6157Z" fill="#F8F9FA"/>
<path d="M44.3299 14.8027L46.79 16.2548C47.0473 16.4067 47.3842 16.3298 47.5426 16.083L54.2149 5.68669C54.3733 5.43996 54.2931 5.11684 54.0358 4.96497L51.5757 3.51284C51.3184 3.36097 50.9814 3.43788 50.8231 3.68461L44.1508 14.081C43.9924 14.3277 44.0726 14.6508 44.3299 14.8027Z" fill="#F8F9FA"/>
<path d="M54.8988 0.1619C55.2702 -0.0325761 55.7212 0.233716 55.7075 0.639332L55.5087 6.52243C55.4931 6.98026 54.9163 7.20049 54.5768 6.87805L52.5365 4.93885C52.4769 4.88219 52.4044 4.83944 52.3248 4.81394L49.6002 3.94058C49.1472 3.79534 49.0923 3.20211 49.5115 2.9826L54.8988 0.1619Z" fill="#F8F9FA"/>
<path d="M42.7811 11.3821L41.2227 10.4622L33.4069 22.6402L34.9654 23.5601L42.7811 11.3821Z" fill="#00B894"/>
<path d="M46.4978 15.6364L47.457 14.1418L41.2232 10.4622L40.264 11.9568L46.4978 15.6364Z" fill="#00B894"/>
<path d="M44.9376 14.7166L46.4961 15.6365L53.5236 4.68679L51.9651 3.76688L44.9376 14.7166Z" fill="#00B894"/>
<path d="M54.6984 1.06543L54.5497 6.12967L52.6201 4.30373L50.0508 3.47417L54.6984 1.06543Z" fill="#00B894"/>
<path d="M5.09846 15.2655H12.4503V17.9934H5.09846V15.2655ZM5.36102 23.3442H1.81641V8.65565H13.3911V11.3835H5.36102V23.3442ZM15.1125 23.3442V12.055H18.5258V23.3442H15.1125ZM16.8192 10.4812C16.1919 10.4812 15.6814 10.3064 15.2875 9.95663C14.8937 9.60692 14.6968 9.17324 14.6968 8.65565C14.6968 8.13806 14.8937 7.70439 15.2875 7.35467C15.6814 7.00495 16.1919 6.83008 16.8192 6.83008C17.4464 6.83008 17.9569 6.99795 18.3508 7.33368C18.7446 7.65544 18.9415 8.07511 18.9415 8.5927C18.9415 9.13827 18.7446 9.59291 18.3508 9.95663C17.9715 10.3064 17.461 10.4812 16.8192 10.4812ZM28.4109 11.8871C29.3446 11.8871 30.1761 12.069 30.9052 12.4327C31.6492 12.7824 32.2328 13.328 32.6557 14.0694C33.0788 14.7968 33.2902 15.7341 33.2902 16.8812V23.3442H29.8769V17.3848C29.8769 16.4755 29.6654 15.8041 29.2423 15.3704C28.834 14.9368 28.2506 14.7199 27.4919 14.7199C26.9522 14.7199 26.4636 14.8318 26.026 15.0557C25.603 15.2655 25.2675 15.5942 25.0195 16.0419C24.7861 16.4895 24.6694 17.0631 24.6694 17.7625V23.3442H21.2561V12.055H24.5162V15.1816L23.9036 14.2373C24.3266 13.4819 24.932 12.9013 25.7197 12.4957C26.5074 12.09 27.4044 11.8871 28.4109 11.8871Z" fill="#333333"/>
<path d="M15.5898 31.7377V28.4013H14.2441V28.0655H17.3402V28.4013H15.9946V31.7377H15.5898ZM17.9394 31.7377V28.9836H18.3114V29.7337L18.2731 29.6026C18.3534 29.3928 18.4883 29.2335 18.6779 29.1252C18.8675 29.0132 19.1028 28.9573 19.3835 28.9573V29.3193C19.369 29.3193 19.3544 29.3193 19.3398 29.3193C19.3252 29.3159 19.3106 29.3141 19.296 29.3141C18.9934 29.3141 18.7563 29.4032 18.5849 29.5816C18.4135 29.7566 18.3278 30.0065 18.3278 30.3318V31.7377H17.9394ZM21.7876 31.7377V31.1291L21.7712 31.0295V30.0118C21.7712 29.7775 21.7019 29.5973 21.5633 29.4714C21.4284 29.3455 21.226 29.2826 20.9562 29.2826C20.7702 29.2826 20.5933 29.3122 20.4256 29.3718C20.2578 29.4313 20.1156 29.51 19.9989 29.6078L19.8238 29.3298C19.9697 29.211 20.1447 29.12 20.349 29.057C20.5532 28.9907 20.7683 28.9573 20.9944 28.9573C21.3664 28.9573 21.6527 29.0465 21.8532 29.2249C22.0574 29.3998 22.1596 29.6674 22.1596 30.0275V31.7377H21.7876ZM20.7975 31.7639C20.5824 31.7639 20.3945 31.7306 20.2341 31.6642C20.0773 31.5942 19.9569 31.4998 19.8731 31.381C19.7892 31.2585 19.7473 31.1187 19.7473 30.9613C19.7473 30.8178 19.7819 30.6885 19.8512 30.5731C19.9241 30.4543 20.0408 30.3598 20.2013 30.2898C20.3654 30.2164 20.5842 30.1796 20.8577 30.1796H21.8478V30.4577H20.8686C20.5915 30.4577 20.3982 30.5049 20.2888 30.5993C20.183 30.6937 20.1302 30.811 20.1302 30.9508C20.1302 31.1082 20.194 31.2341 20.3216 31.3285C20.4492 31.4229 20.6279 31.4701 20.8577 31.4701C21.0765 31.4701 21.2643 31.4229 21.4211 31.3285C21.5815 31.2307 21.6983 31.0906 21.7712 30.9088L21.8587 31.1659C21.7858 31.3476 21.6581 31.493 21.4758 31.6013C21.2971 31.7096 21.071 31.7639 20.7975 31.7639ZM24.5163 31.7639C24.2319 31.7639 23.9766 31.7044 23.7505 31.5855C23.5281 31.463 23.353 31.297 23.2254 31.0872C23.0977 30.8739 23.0339 30.6308 23.0339 30.358C23.0339 30.0818 23.0977 29.8387 23.2254 29.6288C23.353 29.419 23.5281 29.2545 23.7505 29.1357C23.9766 29.0169 24.2319 28.9573 24.5163 28.9573C24.7607 28.9573 24.9813 29.0027 25.1782 29.0937C25.3751 29.1848 25.5301 29.3211 25.6432 29.5029L25.3533 29.6918C25.2548 29.552 25.1326 29.4486 24.9868 29.3823C24.8409 29.3159 24.6822 29.2826 24.5109 29.2826C24.3066 29.2826 24.1225 29.328 23.9584 29.419C23.7943 29.5063 23.6648 29.6307 23.57 29.7914C23.4752 29.9522 23.4278 30.1411 23.4278 30.358C23.4278 30.5749 23.4752 30.7638 23.57 30.9246C23.6648 31.0853 23.7943 31.2112 23.9584 31.3023C24.1225 31.3896 24.3066 31.4334 24.5109 31.4334C24.6822 31.4334 24.8409 31.4001 24.9868 31.3337C25.1326 31.2674 25.2548 31.1659 25.3533 31.0295L25.6432 31.2183C25.5301 31.3967 25.3751 31.5331 25.1782 31.6275C24.9813 31.7185 24.7607 31.7639 24.5163 31.7639ZM26.7791 31.0242L26.79 30.5469L28.5788 28.9836H29.0547L27.7911 30.1429L27.5723 30.3213L26.7791 31.0242ZM26.4728 31.7377V27.8452H26.8611V31.7377H26.4728ZM28.6991 31.7377L27.5012 30.3055L27.7528 30.017L29.175 31.7377H28.6991ZM32.1797 31.7639C31.9426 31.7639 31.7183 31.7324 31.5069 31.6695C31.2955 31.6031 31.1295 31.5208 31.0091 31.4229L31.1842 31.1291C31.301 31.2131 31.4503 31.2865 31.6327 31.3495C31.8151 31.409 32.0066 31.4387 32.2071 31.4387C32.4806 31.4387 32.6775 31.3985 32.7978 31.318C32.9182 31.2341 32.9784 31.1239 32.9784 30.9875C32.9784 30.886 32.9436 30.8073 32.8744 30.7514C32.8088 30.6919 32.7213 30.6484 32.6119 30.6203C32.5025 30.5888 32.3802 30.5626 32.2454 30.5416C32.1105 30.5206 31.9754 30.4962 31.8406 30.4682C31.7093 30.4401 31.589 30.4 31.4796 30.3475C31.3702 30.2916 31.2807 30.2164 31.2115 30.1219C31.1459 30.0275 31.1131 29.9016 31.1131 29.7442C31.1131 29.5939 31.1568 29.4591 31.2443 29.3403C31.3319 29.2215 31.4596 29.1286 31.6273 29.0623C31.7987 28.9922 32.0066 28.9573 32.2508 28.9573C32.4368 28.9573 32.6228 28.9817 32.8088 29.0308C32.9948 29.0762 33.1479 29.1375 33.2683 29.2144L33.0987 29.5134C32.971 29.4295 32.8342 29.3699 32.6884 29.335C32.5427 29.2965 32.3966 29.2773 32.2508 29.2773C31.9918 29.2773 31.8004 29.3211 31.6765 29.4085C31.5561 29.4924 31.496 29.6008 31.496 29.7337C31.496 29.8387 31.5288 29.9208 31.5944 29.9803C31.6636 30.0398 31.7531 30.087 31.8625 30.1219C31.9754 30.1534 32.0977 30.1796 32.229 30.2006C32.3638 30.2216 32.497 30.2478 32.6283 30.2793C32.7631 30.3074 32.8854 30.3475 32.9948 30.4C33.1077 30.449 33.1972 30.5206 33.2628 30.6151C33.332 30.7061 33.3667 30.8267 33.3667 30.977C33.3667 31.1378 33.3194 31.2779 33.2245 31.3967C33.1334 31.5121 32.9983 31.6031 32.8197 31.6695C32.6447 31.7324 32.4314 31.7639 32.1797 31.7639ZM37.7773 28.9573C38.0106 28.9573 38.213 29.0011 38.3844 29.0885C38.5595 29.1724 38.6943 29.3017 38.7892 29.4767C38.8877 29.6516 38.9369 29.872 38.9369 30.1377V31.7377H38.5485V30.1744C38.5485 29.884 38.4755 29.6655 38.3298 29.5187C38.1875 29.3684 37.9851 29.2931 37.7226 29.2931C37.5256 29.2931 37.3542 29.3332 37.2084 29.4137C37.0662 29.4906 36.9548 29.6044 36.8747 29.7547C36.7981 29.9016 36.7598 30.08 36.7598 30.2898V31.7377H36.3715V30.1744C36.3715 29.884 36.2984 29.6655 36.1527 29.5187C36.0066 29.3684 35.8026 29.2931 35.54 29.2931C35.3466 29.2931 35.1771 29.3332 35.0313 29.4137C34.8852 29.4906 34.7723 29.6044 34.6921 29.7547C34.6156 29.9016 34.5773 30.08 34.5773 30.2898V31.7377H34.1889V28.9836H34.5609V29.7285L34.5007 29.5973C34.5882 29.398 34.7285 29.2425 34.9219 29.1305C35.1188 29.015 35.3502 28.9573 35.6166 28.9573C35.8972 28.9573 36.1362 29.0255 36.3332 29.1619C36.5301 29.2949 36.6575 29.4958 36.7161 29.7652L36.5629 29.7075C36.6466 29.4838 36.7943 29.3036 37.006 29.1672C37.221 29.0274 37.4781 28.9573 37.7773 28.9573ZM41.8993 31.7377V31.1291L41.8828 31.0295V30.0118C41.8828 29.7775 41.8134 29.5973 41.675 29.4714C41.5399 29.3455 41.3375 29.2826 41.0678 29.2826C40.8818 29.2826 40.7049 29.3122 40.5372 29.3718C40.3693 29.4313 40.227 29.51 40.1105 29.6078L39.9355 29.3298C40.0813 29.211 40.2563 29.12 40.4606 29.057C40.6647 28.9907 40.8799 28.9573 41.1061 28.9573C41.4781 28.9573 41.7641 29.0465 41.9649 29.2249C42.1689 29.3998 42.2712 29.6674 42.2712 30.0275V31.7377H41.8993ZM40.9092 31.7639C40.6939 31.7639 40.506 31.7306 40.3458 31.6642C40.1888 31.5942 40.0684 31.4998 39.9847 31.381C39.9008 31.2585 39.8589 31.1187 39.8589 30.9613C39.8589 30.8178 39.8934 30.6885 39.9628 30.5731C40.0356 30.4543 40.1524 30.3598 40.3129 30.2898C40.477 30.2164 40.6958 30.1796 40.9693 30.1796H41.9594V30.4577H40.9803C40.7029 30.4577 40.5099 30.5049 40.4004 30.5993C40.2946 30.6937 40.2418 30.811 40.2418 30.9508C40.2418 31.1082 40.3055 31.2341 40.4333 31.3285C40.5607 31.4229 40.7396 31.4701 40.9693 31.4701C41.1881 31.4701 41.3758 31.4229 41.5328 31.3285C41.693 31.2307 41.8098 31.0906 41.8828 30.9088L41.9704 31.1659C41.8973 31.3476 41.7696 31.493 41.5875 31.6013C41.4086 31.7096 41.1827 31.7639 40.9092 31.7639ZM43.4353 31.7377V28.9836H43.8072V29.7337L43.7689 29.6026C43.8493 29.3928 43.9842 29.2335 44.1737 29.1252C44.3635 29.0132 44.5987 28.9573 44.8794 28.9573V29.3193C44.8649 29.3193 44.8504 29.3193 44.8356 29.3193C44.8211 29.3159 44.8066 29.3141 44.7918 29.3141C44.4893 29.3141 44.2522 29.4032 44.0807 29.5816C43.9095 29.7566 43.8236 30.0065 43.8236 30.3318V31.7377H43.4353ZM46.7285 31.7639C46.4586 31.7639 46.2507 31.6939 46.1049 31.5541C45.9589 31.4143 45.8861 31.2165 45.8861 30.9613V28.3751H46.2745V30.9403C46.2745 31.1011 46.3163 31.2254 46.4003 31.3128C46.4878 31.4001 46.6117 31.4439 46.7723 31.4439C46.9435 31.4439 47.0857 31.3967 47.1989 31.3023L47.3357 31.5698C47.2591 31.6362 47.1661 31.6852 47.0567 31.7167C46.9509 31.7482 46.8415 31.7639 46.7285 31.7639ZM45.3719 29.2931V28.9836H47.1497V29.2931H45.3719ZM49.2705 31.7639C48.9713 31.7639 48.7087 31.7044 48.4828 31.5855C48.2566 31.463 48.0796 31.297 47.9522 31.0872C47.8244 30.8739 47.7607 30.6308 47.7607 30.358C47.7607 30.0852 47.8209 29.8439 47.9412 29.6341C48.0651 29.4242 48.2328 29.2598 48.4445 29.141C48.6595 29.0185 48.9001 28.9573 49.1665 28.9573C49.4362 28.9573 49.6753 29.0169 49.8831 29.1357C50.0945 29.2511 50.2606 29.4156 50.3809 29.6288C50.5012 29.8387 50.5614 30.0818 50.5614 30.358C50.5614 30.3756 50.5595 30.3947 50.5559 30.4157C50.5559 30.4333 50.5559 30.4524 50.5559 30.4734H48.0561V30.1954H50.3481L50.1949 30.3055C50.1949 30.1062 50.1492 29.9297 50.0582 29.7757C49.9706 29.6183 49.8503 29.4958 49.6971 29.4085C49.544 29.3211 49.367 29.2773 49.1665 29.2773C48.9696 29.2773 48.7927 29.3211 48.6359 29.4085C48.4789 29.4958 48.357 29.6183 48.2694 29.7757C48.1819 29.9331 48.1382 30.1133 48.1382 30.316V30.3737C48.1382 30.5836 48.1855 30.769 48.2804 30.9298C48.3788 31.0872 48.5137 31.2112 48.6852 31.3023C48.8602 31.3896 49.0588 31.4334 49.2814 31.4334C49.4564 31.4334 49.6186 31.4038 49.7682 31.3442C49.9214 31.2847 50.0527 31.1939 50.1621 31.0714L50.3809 31.3128C50.2532 31.4596 50.0926 31.5716 49.8995 31.6485C49.7097 31.7253 49.5002 31.7639 49.2705 31.7639ZM51.4612 31.7377V28.9836H51.8332V29.7337L51.7949 29.6026C51.875 29.3928 52.0102 29.2335 52.1997 29.1252C52.3892 29.0132 52.6245 28.9573 52.9053 28.9573V29.3193C52.8908 29.3193 52.8761 29.3193 52.8616 29.3193C52.8471 29.3159 52.8323 29.3141 52.8178 29.3141C52.515 29.3141 52.2782 29.4032 52.1067 29.5816C51.9352 29.7566 51.8496 30.0065 51.8496 30.3318V31.7377H51.4612ZM53.751 31.7639C53.6709 31.7639 53.6014 31.7358 53.5432 31.68C53.4884 31.6241 53.4611 31.5559 53.4611 31.4754C53.4611 31.3914 53.4884 31.3232 53.5432 31.2708C53.6014 31.2183 53.6709 31.1921 53.751 31.1921C53.8312 31.1921 53.8987 31.2183 53.9534 31.2708C54.0117 31.3232 54.0409 31.3914 54.0409 31.4754C54.0409 31.5559 54.0117 31.6241 53.9534 31.68C53.8987 31.7358 53.8312 31.7639 53.751 31.7639ZM57.6602 31.7691C57.3758 31.7691 57.1023 31.7253 56.8397 31.638C56.5807 31.547 56.3802 31.4316 56.238 31.2918L56.3966 30.9928C56.5315 31.1187 56.712 31.2254 56.9382 31.3128C57.1679 31.3967 57.4086 31.4387 57.6602 31.4387C57.9009 31.4387 58.0959 31.4106 58.2455 31.3547C58.3987 31.2952 58.5097 31.2165 58.5792 31.1187C58.6519 31.0208 58.6886 30.9122 58.6886 30.7934C58.6886 30.6499 58.6448 30.5345 58.5573 30.4472C58.4733 30.3598 58.362 30.2916 58.2236 30.2426C58.085 30.1901 57.9318 30.1448 57.7641 30.1062C57.5962 30.0676 57.4286 30.0275 57.2609 29.9855C57.093 29.9402 56.9382 29.8806 56.7959 29.8072C56.6573 29.7337 56.5443 29.6375 56.4568 29.5187C56.3728 29.3962 56.331 29.2372 56.331 29.0413C56.331 28.8595 56.3802 28.6932 56.4787 28.5429C56.5807 28.389 56.7358 28.2667 56.9436 28.1757C57.1515 28.0813 57.4176 28.0341 57.7423 28.0341C57.9572 28.0341 58.1706 28.0637 58.3823 28.1232C58.5937 28.1791 58.7761 28.2578 58.9293 28.3593L58.7925 28.6688C58.6284 28.5639 58.4534 28.487 58.2674 28.438C58.085 28.389 57.908 28.3646 57.7368 28.3646C57.507 28.3646 57.3172 28.3942 57.1679 28.4537C57.0183 28.5133 56.907 28.5935 56.8342 28.6951C56.7648 28.7929 56.7303 28.9049 56.7303 29.0308C56.7303 29.1743 56.7721 29.2897 56.8561 29.377C56.9436 29.4644 57.0566 29.5326 57.1953 29.5816C57.3375 29.6307 57.4923 29.6742 57.6602 29.7128C57.8279 29.7513 57.9939 29.7933 58.158 29.8387C58.3256 29.884 58.4788 29.9436 58.6175 30.017C58.7597 30.0871 58.8727 30.1815 58.9566 30.3003C59.0441 30.4191 59.0879 30.5749 59.0879 30.7672C59.0879 30.9455 59.0368 31.1116 58.9347 31.2655C58.8324 31.4158 58.6757 31.5383 58.4643 31.6328C58.2564 31.7238 57.9884 31.7691 57.6602 31.7691ZM61.7967 31.7377V31.1291L61.7803 31.0295V30.0118C61.7803 29.7775 61.7111 29.5973 61.5724 29.4714C61.4376 29.3455 61.2352 29.2826 60.9652 29.2826C60.7793 29.2826 60.6026 29.3122 60.4346 29.3718C60.267 29.4313 60.1248 29.51 60.008 29.6078L59.8329 29.3298C59.979 29.211 60.154 29.12 60.3581 29.057C60.5624 28.9907 60.7776 28.9573 61.0035 28.9573C61.3755 28.9573 61.6619 29.0465 61.8623 29.2249C62.0666 29.3998 62.1687 29.6674 62.1687 30.0275V31.7377H61.7967ZM60.8066 31.7639C60.5916 31.7639 60.4037 31.7306 60.2432 31.6642C60.0865 31.5942 59.9661 31.4998 59.8822 31.381C59.7985 31.2585 59.7563 31.1187 59.7563 30.9613C59.7563 30.8178 59.7911 30.6885 59.8603 30.5731C59.9333 30.4543 60.0501 30.3598 60.2104 30.2898C60.3745 30.2164 60.5933 30.1796 60.8668 30.1796H61.8569V30.4577H60.8777C60.6007 30.4577 60.4073 30.5049 60.2979 30.5993C60.1923 30.6937 60.1393 30.811 60.1393 30.9508C60.1393 31.1082 60.2033 31.2341 60.3307 31.3285C60.4584 31.4229 60.637 31.4701 60.8668 31.4701C61.0856 31.4701 61.2735 31.4229 61.4302 31.3285C61.5907 31.2307 61.7075 31.0906 61.7803 30.9088L61.8678 31.1659C61.795 31.3476 61.6673 31.493 61.4849 31.6013C61.3063 31.7096 61.0801 31.7639 60.8066 31.7639ZM64.0181 31.7377L62.7436 28.9836H63.1483L64.3189 31.5383H64.1275L65.3145 28.9836H65.6974L64.4174 31.7377H64.0181ZM67.4935 31.7639C67.1943 31.7639 66.9317 31.7044 66.7058 31.5855C66.4796 31.463 66.3027 31.297 66.1752 31.0872C66.0475 30.8739 65.9838 30.6308 65.9838 30.358C65.9838 30.0852 66.0439 29.8439 66.1643 29.6341C66.2882 29.4242 66.4558 29.2598 66.6675 29.141C66.8825 29.0185 67.1232 28.9573 67.3896 28.9573C67.6593 28.9573 67.8983 29.0169 68.1062 29.1357C68.3176 29.2511 68.4836 29.4156 68.6039 29.6288C68.7243 29.8387 68.7845 30.0818 68.7845 30.358C68.7845 30.3756 68.7825 30.3947 68.779 30.4157C68.779 30.4333 68.779 30.4524 68.779 30.4734H66.2791V30.1954H68.5711L68.418 30.3055C68.418 30.1062 68.3723 29.9297 68.2812 29.7757C68.1937 29.6183 68.0733 29.4958 67.9202 29.4085C67.767 29.3211 67.5901 29.2773 67.3896 29.2773C67.1927 29.2773 67.0157 29.3211 66.859 29.4085C66.702 29.4958 66.58 29.6183 66.4925 29.7757C66.405 29.9331 66.3612 30.1133 66.3612 30.316V30.3737C66.3612 30.5836 66.4085 30.769 66.5034 30.9298C66.6019 31.0872 66.7367 31.2112 66.9082 31.3023C67.0833 31.3896 67.2818 31.4334 67.5045 31.4334C67.6795 31.4334 67.8417 31.4038 67.9913 31.3442C68.1445 31.2847 68.2757 31.1939 68.3851 31.0714L68.6039 31.3128C68.4762 31.4596 68.3157 31.5716 68.1226 31.6485C67.9328 31.7253 67.7233 31.7639 67.4935 31.7639ZM72.7079 31.7639C72.4562 31.7639 72.2301 31.7096 72.0296 31.6013C71.8288 31.4893 71.6702 31.3285 71.5537 31.1187C71.4369 30.9088 71.3786 30.6552 71.3786 30.358C71.3786 30.0571 71.4369 29.8038 71.5537 29.5973C71.674 29.3875 71.8343 29.2283 72.035 29.12C72.2355 29.0116 72.4598 28.9573 72.7079 28.9573C72.9814 28.9573 73.2256 29.0169 73.4409 29.1357C73.6597 29.2511 73.8309 29.4137 73.9551 29.6236C74.0789 29.8334 74.141 30.0781 74.141 30.358C74.141 30.6342 74.0789 30.8792 73.9551 31.0924C73.8309 31.3023 73.6597 31.4667 73.4409 31.5855C73.2256 31.7044 72.9814 31.7639 72.7079 31.7639ZM71.2255 31.7377V27.8452H71.6139V29.7967L71.5592 30.3528L71.5974 30.9088V31.7377H71.2255ZM72.6805 31.4334C72.8846 31.4334 73.067 31.3896 73.2275 31.3023C73.3878 31.2112 73.5155 31.0853 73.6104 30.9246C73.7051 30.7601 73.7527 30.5712 73.7527 30.358C73.7527 30.1411 73.7051 29.9522 73.6104 29.7914C73.5155 29.6307 73.3878 29.5063 73.2275 29.419C73.067 29.328 72.8846 29.2826 72.6805 29.2826C72.4762 29.2826 72.2921 29.328 72.1278 29.419C71.9675 29.5063 71.8398 29.6307 71.7451 29.7914C71.6538 29.9522 71.6084 30.1411 71.6084 30.358C71.6084 30.5712 71.6538 30.7601 71.7451 30.9246C71.8398 31.0853 71.9675 31.2112 72.1278 31.3023C72.2921 31.3896 72.4762 31.4334 72.6805 31.4334ZM76.2618 31.7639C75.9628 31.7639 75.7003 31.7044 75.4741 31.5855C75.2482 31.463 75.0712 31.297 74.9435 31.0872C74.816 30.8739 74.752 30.6308 74.752 30.358C74.752 30.0852 74.8122 29.8439 74.9325 29.6341C75.0567 29.4242 75.2244 29.2598 75.4358 29.141C75.6511 29.0185 75.8917 28.9573 76.1579 28.9573C76.4278 28.9573 76.6666 29.0169 76.8744 29.1357C77.0861 29.2511 77.2519 29.4156 77.3722 29.6288C77.4926 29.8387 77.5527 30.0818 77.5527 30.358C77.5527 30.3756 77.5511 30.3947 77.5473 30.4157C77.5473 30.4333 77.5473 30.4524 77.5473 30.4734H75.0474V30.1954H77.3394L77.1862 30.3055C77.1862 30.1062 77.1408 29.9297 77.0495 29.7757C76.962 29.6183 76.8416 29.4958 76.6884 29.4085C76.5353 29.3211 76.3586 29.2773 76.1579 29.2773C75.9609 29.2773 75.7842 29.3211 75.6273 29.4085C75.4705 29.4958 75.3483 29.6183 75.2608 29.7757C75.1732 29.9331 75.1295 30.1133 75.1295 30.316V30.3737C75.1295 30.5836 75.1771 30.769 75.2717 30.9298C75.3702 31.0872 75.5053 31.2112 75.6765 31.3023C75.8515 31.3896 76.0504 31.4334 76.2727 31.4334C76.4478 31.4334 76.6102 31.4038 76.7596 31.3442C76.9127 31.2847 77.044 31.1939 77.1534 31.0714L77.3722 31.3128C77.2448 31.4596 77.0842 31.5716 76.8908 31.6485C76.7013 31.7253 76.4915 31.7639 76.2618 31.7639ZM79.3609 31.7639C79.0909 31.7639 78.883 31.6939 78.7373 31.5541C78.5912 31.4143 78.5185 31.2165 78.5185 30.9613V28.3751H78.9068V30.9403C78.9068 31.1011 78.9487 31.2254 79.0327 31.3128C79.1202 31.4001 79.2441 31.4439 79.4046 31.4439C79.5758 31.4439 79.7181 31.3967 79.8313 31.3023L79.968 31.5698C79.8915 31.6362 79.7985 31.6852 79.6891 31.7167C79.5832 31.7482 79.4738 31.7639 79.3609 31.7639ZM78.0043 29.2931V28.9836H79.7821V29.2931H78.0043ZM81.6175 31.7639C81.3476 31.7639 81.1397 31.6939 80.994 31.5541C80.8482 31.4143 80.7752 31.2165 80.7752 30.9613V28.3751H81.1635V30.9403C81.1635 31.1011 81.2054 31.2254 81.2893 31.3128C81.3769 31.4001 81.5008 31.4439 81.6613 31.4439C81.8328 31.4439 81.975 31.3967 82.088 31.3023L82.2247 31.5698C82.1481 31.6362 82.0552 31.6852 81.9458 31.7167C81.8399 31.7482 81.7305 31.7639 81.6175 31.7639ZM80.261 29.2931V28.9836H82.0387V29.2931H80.261ZM84.1595 31.7639C83.8606 31.7639 83.598 31.7044 83.3718 31.5855C83.1456 31.463 82.9689 31.297 82.8412 31.0872C82.7135 30.8739 82.6497 30.6308 82.6497 30.358C82.6497 30.0852 82.7099 29.8439 82.8303 29.6341C82.9542 29.4242 83.1221 29.2598 83.3335 29.141C83.5488 29.0185 83.7894 28.9573 84.0556 28.9573C84.3255 28.9573 84.5643 29.0169 84.7721 29.1357C84.9836 29.2511 85.1496 29.4156 85.2699 29.6288C85.3903 29.8387 85.4504 30.0818 85.4504 30.358C85.4504 30.3756 85.4485 30.3947 85.445 30.4157C85.445 30.4333 85.445 30.4524 85.445 30.4734H82.9451V30.1954H85.2371L85.0839 30.3055C85.0839 30.1062 85.0383 29.9297 84.9472 29.7757C84.8597 29.6183 84.7393 29.4958 84.5862 29.4085C84.433 29.3211 84.256 29.2773 84.0556 29.2773C83.8586 29.2773 83.6817 29.3211 83.525 29.4085C83.3682 29.4958 83.246 29.6183 83.1585 29.7757C83.0709 29.9331 83.0272 30.1133 83.0272 30.316V30.3737C83.0272 30.5836 83.0745 30.769 83.1694 30.9298C83.2679 31.0872 83.4027 31.2112 83.5742 31.3023C83.7492 31.3896 83.9481 31.4334 84.1704 31.4334C84.3455 31.4334 84.5077 31.4038 84.6573 31.3442C84.8104 31.2847 84.9417 31.1939 85.0511 31.0714L85.2699 31.3128C85.1422 31.4596 84.9819 31.5716 84.7886 31.6485C84.599 31.7253 84.3892 31.7639 84.1595 31.7639ZM86.3503 31.7377V28.9836H86.7222V29.7337L86.6839 29.6026C86.7643 29.3928 86.8992 29.2335 87.0887 29.1252C87.2785 29.0132 87.5137 28.9573 87.7944 28.9573V29.3193C87.7799 29.3193 87.7654 29.3193 87.7506 29.3193C87.7361 29.3159 87.7216 29.3141 87.7068 29.3141C87.4044 29.3141 87.1672 29.4032 86.9957 29.5816C86.8245 29.7566 86.7386 30.0065 86.7386 30.3318V31.7377H86.3503ZM88.64 31.7639C88.5599 31.7639 88.4907 31.7358 88.4322 31.68C88.3775 31.6241 88.3501 31.5559 88.3501 31.4754C88.3501 31.3914 88.3775 31.3232 88.4322 31.2708C88.4907 31.2183 88.5599 31.1921 88.64 31.1921C88.7205 31.1921 88.7877 31.2183 88.8424 31.2708C88.901 31.3232 88.93 31.3914 88.93 31.4754C88.93 31.5559 88.901 31.6241 88.8424 31.68C88.7877 31.7358 88.7205 31.7639 88.64 31.7639Z" fill="white"/>
</svg>
