<svg width="127" height="43" viewBox="0 0 127 43" fill="none" xmlns="http://www.w3.org/2000/svg">
<g clip-path="url(#clip0_2092_1447)">
<path d="M52.7973 31.4958V15.48H46.3134V11.7581H63.9704L62.5955 13.9222L61.51 15.48H57.4865V31.4958H52.7973Z" fill="#00B894"/>
<path d="M65.257 31.4958V16.3259H69.57V20.6118L68.9621 19.3712C69.4252 18.2997 70.168 17.4914 71.1909 16.9462C72.2134 16.3823 73.4581 16.1003 74.9249 16.1003V20.1607C74.7317 20.1419 74.5581 20.1325 74.4039 20.1325C74.2494 20.1137 74.0855 20.1043 73.9118 20.1043C72.6766 20.1043 71.6732 20.452 70.9015 21.1476C70.1489 21.8243 69.7726 22.8863 69.7726 24.3338V31.4958H65.257Z" fill="#00B894"/>
<path d="M85.5654 31.4958V28.5351L85.276 27.8866V22.5856C85.276 21.6457 84.9767 20.9126 84.3786 20.3862C83.7997 19.8599 82.9024 19.5967 81.6867 19.5967C80.8567 19.5967 80.0368 19.7283 79.2263 19.9915C78.435 20.2358 77.7594 20.5742 77.2001 21.0066L75.5791 17.9331C76.4279 17.3504 77.4508 16.8993 78.6474 16.5797C79.8436 16.2601 81.0593 16.1003 82.2945 16.1003C84.6681 16.1003 86.5109 16.6455 87.8232 17.7358C89.1352 18.826 89.7915 20.5272 89.7915 22.8394V31.4958H85.5654ZM80.8183 31.7213C79.6026 31.7213 78.5605 31.5239 77.6921 31.1292C76.8238 30.7157 76.158 30.1611 75.6949 29.4656C75.2317 28.7701 75.0002 27.9899 75.0002 27.1253C75.0002 26.223 75.222 25.4335 75.6659 24.7567C76.1291 24.08 76.8527 23.5537 77.8369 23.1777C78.821 22.783 80.1041 22.5856 81.6867 22.5856H85.8259V25.1515H82.1788C81.1172 25.1515 80.3841 25.3207 79.9789 25.659C79.5928 25.9974 79.4 26.4203 79.4 26.9279C79.4 27.4918 79.6218 27.943 80.0657 28.2813C80.5288 28.6009 81.1559 28.7607 81.9472 28.7607C82.6998 28.7607 83.3749 28.5915 83.9734 28.2531C84.5715 27.896 85.0057 27.379 85.276 26.7023L85.9707 28.7325C85.6425 29.7099 85.0444 30.4525 84.176 30.96C83.3076 31.4676 82.1882 31.7213 80.8183 31.7213Z" fill="#00B894"/>
<path d="M100.938 31.7213C99.2594 31.7213 97.7639 31.3924 96.4516 30.7344C95.1396 30.0577 94.107 29.1272 93.3544 27.943C92.6213 26.7587 92.2545 25.4147 92.2545 23.9108C92.2545 22.3882 92.6213 21.0442 93.3544 19.8787C94.107 18.6944 95.1396 17.7734 96.4516 17.1154C97.7639 16.4387 99.2594 16.1003 100.938 16.1003C102.579 16.1003 104.006 16.4387 105.222 17.1154C106.438 17.7734 107.335 18.7226 107.914 19.9633L104.412 21.7961C104.006 21.0818 103.495 20.5554 102.878 20.2171C102.279 19.8787 101.624 19.7095 100.909 19.7095C100.138 19.7095 99.4428 19.8787 98.8252 20.2171C98.2079 20.5554 97.7158 21.0348 97.3489 21.6551C97.0016 22.2754 96.8279 23.0273 96.8279 23.9108C96.8279 24.7943 97.0016 25.5462 97.3489 26.1666C97.7158 26.7869 98.2079 27.2662 98.8252 27.6046C99.4428 27.943 100.138 28.1121 100.909 28.1121C101.624 28.1121 102.279 27.9524 102.878 27.6328C103.495 27.2944 104.006 26.7587 104.412 26.0256L107.914 27.8866C107.335 29.1084 106.438 30.0577 105.222 30.7344C104.006 31.3924 102.579 31.7213 100.938 31.7213Z" fill="#00B894"/>
<path d="M113.585 28.3941L113.7 23.0367L120.966 16.3259H126.35L119.374 23.2341L117.029 25.095L113.585 28.3941ZM109.851 31.4957V10.5737H114.366V31.4957H109.851ZM121.458 31.4957L116.19 25.1232L119.026 21.7114L126.929 31.4957H121.458Z" fill="#00B894"/>
<path d="M57.9493 15.8488L53.4315 13.1401L42.2519 30.834L46.7697 33.5426L57.9493 15.8488Z" fill="#F8F9FA"/>
<path d="M62.4481 22.3275L64.4142 19.2158C64.6237 18.8843 64.5176 18.4501 64.1772 18.246L54.6461 12.5314C54.3057 12.3274 53.86 12.4307 53.6505 12.7623L51.6844 15.874C51.4749 16.2056 51.581 16.6398 51.9213 16.8438L61.4525 22.5584C61.7929 22.7624 62.2386 22.6591 62.4481 22.3275Z" fill="#F8F9FA"/>
<path d="M58.6439 19.8911L61.8985 21.8424C62.2389 22.0465 62.6846 21.9431 62.8941 21.6116L71.721 7.64151C71.9305 7.30996 71.8244 6.87576 71.4841 6.6717L68.2295 4.72039C67.8891 4.51632 67.4434 4.61967 67.2339 4.95121L58.407 18.9213C58.1975 19.2528 58.3036 19.687 58.6439 19.8911Z" fill="#F8F9FA"/>
<path d="M72.6263 0.217682C73.1176 -0.0436445 73.7143 0.314186 73.6962 0.859232L73.4331 8.76464C73.4125 9.37986 72.6494 9.67578 72.2004 9.2425L69.5012 6.6367C69.4223 6.56057 69.3264 6.50312 69.2212 6.46886L65.6167 5.29528C65.0175 5.10012 64.9448 4.30297 65.4994 4.00799L72.6263 0.217682Z" fill="#F8F9FA"/>
<path d="M56.5954 15.2947L54.5336 14.0586L44.1941 30.4229L46.2558 31.659L56.5954 15.2947Z" fill="#00B894"/>
<path d="M61.5117 21.0113L62.7807 19.0029L54.5338 14.0584L53.2649 16.0668L61.5117 21.0113Z" fill="#00B894"/>
<path d="M59.4497 19.7751L61.5114 21.0112L70.8082 6.29759L68.7464 5.06146L59.4497 19.7751Z" fill="#00B894"/>
<path d="M72.3621 1.43164L72.1653 8.23671L69.6127 5.78311L66.2137 4.66839L72.3621 1.43164Z" fill="#00B894"/>
<path d="M6.74441 20.5131H16.4702V24.1786H6.74441V20.5131ZM7.09176 31.3688H2.40253V11.6311H17.7149V15.2967H7.09176V31.3688ZM19.9921 31.3688V16.199H24.5077V31.3688H19.9921ZM22.2499 14.0842C21.4201 14.0842 20.7447 13.8492 20.2237 13.3793C19.7027 12.9094 19.4422 12.3266 19.4422 11.6311C19.4422 10.9356 19.7027 10.3528 20.2237 9.8829C20.7447 9.41296 21.4201 9.17798 22.2499 9.17798C23.0797 9.17798 23.7551 9.40355 24.2761 9.8547C24.7972 10.2871 25.0577 10.851 25.0577 11.5465C25.0577 12.2796 24.7972 12.8905 24.2761 13.3793C23.7744 13.8492 23.099 14.0842 22.2499 14.0842ZM37.5848 15.9734C38.82 15.9734 39.92 16.2177 40.8846 16.7065C41.8688 17.1764 42.6409 17.9096 43.2003 18.9058C43.76 19.8833 44.0397 21.1428 44.0397 22.6842V31.3688H39.5242V23.3609C39.5242 22.1391 39.2445 21.2368 38.6847 20.654C38.1445 20.0713 37.3728 19.7799 36.3691 19.7799C35.6551 19.7799 35.0087 19.9303 34.4298 20.2311C33.8702 20.5131 33.4263 20.9548 33.0983 21.5563C32.7895 22.1579 32.6351 22.9286 32.6351 23.8685V31.3688H28.1196V16.199H32.4325V20.4003L31.622 19.1314C32.1816 18.1163 32.9825 17.3362 34.0245 16.7911C35.0666 16.2459 36.2533 15.9734 37.5848 15.9734Z" fill="#333333"/>
<path d="M20.6239 42.6475V38.1642H18.8438V37.7131H22.9396V38.1642H21.1594V42.6475H20.6239ZM23.7323 42.6475V38.9467H24.2244V39.9547L24.1737 39.7785C24.2799 39.4965 24.4584 39.2826 24.7092 39.137C24.9601 38.9865 25.2713 38.9114 25.6427 38.9114V39.3978C25.6235 39.3978 25.6042 39.3978 25.5848 39.3978C25.5656 39.3932 25.5463 39.3908 25.527 39.3908C25.1266 39.3908 24.813 39.5106 24.5862 39.7503C24.3595 39.9854 24.2461 40.3213 24.2461 40.7583V42.6475H23.7323ZM28.8231 42.6475V41.8298L28.8014 41.6958V40.3283C28.8014 40.0136 28.7097 39.7714 28.5264 39.6022C28.3479 39.4331 28.0802 39.3485 27.7232 39.3485C27.4771 39.3485 27.2432 39.3883 27.0212 39.4683C26.7993 39.5483 26.6112 39.654 26.4568 39.7855L26.2252 39.4119C26.4182 39.2522 26.6498 39.1299 26.9199 39.0454C27.1901 38.9562 27.4747 38.9114 27.7738 38.9114C28.2659 38.9114 28.6446 39.0313 28.91 39.2709C29.1801 39.506 29.3152 39.8655 29.3152 40.3495V42.6475H28.8231ZM27.5133 42.6827C27.2287 42.6827 26.9802 42.638 26.768 42.5488C26.5605 42.4547 26.4013 42.3278 26.2904 42.1681C26.1794 42.0035 26.1239 41.8157 26.1239 41.6042C26.1239 41.4114 26.1697 41.2376 26.2614 41.0826C26.3579 40.9229 26.5123 40.796 26.7246 40.7019C26.9416 40.6032 27.2311 40.5539 27.5929 40.5539H28.9027V40.9275H27.6074C27.2407 40.9275 26.9851 40.9909 26.8403 41.1178C26.7004 41.2447 26.6305 41.4022 26.6305 41.5901C26.6305 41.8016 26.7149 41.9708 26.8838 42.0976C27.0526 42.2245 27.289 42.288 27.5929 42.288C27.8824 42.288 28.1308 42.2245 28.3383 42.0976C28.5505 41.9662 28.7049 41.778 28.8014 41.5337L28.9172 41.8791C28.8207 42.1234 28.6518 42.3186 28.4106 42.4642C28.1742 42.6098 27.8752 42.6827 27.5133 42.6827ZM32.433 42.6827C32.0567 42.6827 31.719 42.6027 31.4199 42.4431C31.1256 42.2785 30.894 42.0554 30.7252 41.7734C30.5563 41.4868 30.4719 41.1601 30.4719 40.7935C30.4719 40.4224 30.5563 40.0957 30.7252 39.8137C30.894 39.5317 31.1256 39.3108 31.4199 39.1511C31.719 38.9914 32.0567 38.9114 32.433 38.9114C32.7562 38.9114 33.0481 38.9724 33.3086 39.0947C33.5691 39.217 33.7741 39.4003 33.9237 39.6445L33.5402 39.8983C33.4099 39.7104 33.2483 39.5716 33.0553 39.4824C32.8623 39.3932 32.6525 39.3485 32.4258 39.3485C32.1556 39.3485 31.912 39.4094 31.6949 39.5317C31.4778 39.6491 31.3065 39.8162 31.1811 40.0322C31.0556 40.2483 30.9929 40.5021 30.9929 40.7935C30.9929 41.085 31.0556 41.3388 31.1811 41.5549C31.3065 41.7709 31.4778 41.9401 31.6949 42.0624C31.912 42.1798 32.1556 42.2386 32.4258 42.2386C32.6525 42.2386 32.8623 42.1939 33.0553 42.1047C33.2483 42.0155 33.4099 41.8791 33.5402 41.6958L33.9237 41.9496C33.7741 42.1893 33.5691 42.3726 33.3086 42.4995C33.0481 42.6218 32.7562 42.6827 32.433 42.6827ZM35.4264 41.6888L35.4409 41.0473L37.8073 38.9467H38.4368L36.7652 40.5045L36.4758 40.7442L35.4264 41.6888ZM35.0212 42.6475V37.417H35.535V42.6475H35.0212ZM37.9665 42.6475L36.3817 40.7231L36.7146 40.3354L38.596 42.6475H37.9665ZM42.571 42.6827C42.2573 42.6827 41.9606 42.6404 41.681 42.5558C41.4013 42.4667 41.1816 42.356 41.0224 42.2245L41.254 41.8298C41.4085 41.9426 41.6061 42.0413 41.8474 42.1258C42.0887 42.2059 42.342 42.2457 42.6072 42.2457C42.969 42.2457 43.2296 42.1918 43.3888 42.0835C43.548 41.9708 43.6276 41.8227 43.6276 41.6394C43.6276 41.503 43.5816 41.3973 43.4901 41.3222C43.4032 41.2422 43.2875 41.1837 43.1427 41.146C42.998 41.1037 42.8363 41.0685 42.6579 41.0403C42.4795 41.0121 42.3008 40.9793 42.1224 40.9416C41.9487 40.9039 41.7895 40.8499 41.6448 40.7794C41.5 40.7044 41.3817 40.6032 41.2902 40.4763C41.2033 40.3494 41.1599 40.1803 41.1599 39.9688C41.1599 39.7668 41.2178 39.5857 41.3336 39.426C41.4494 39.2663 41.6184 39.1416 41.8402 39.0524C42.067 38.9583 42.342 38.9114 42.6651 38.9114C42.9112 38.9114 43.1572 38.9442 43.4032 39.0101C43.6493 39.0711 43.8519 39.1536 44.0111 39.2568L43.7868 39.6586C43.6178 39.5458 43.4369 39.4658 43.244 39.419C43.0512 39.3671 42.858 39.3414 42.6651 39.3414C42.3225 39.3414 42.0692 39.4003 41.9053 39.5176C41.7461 39.6304 41.6665 39.776 41.6665 39.9547C41.6665 40.0957 41.7099 40.206 41.7967 40.286C41.8883 40.366 42.0066 40.4295 42.1513 40.4763C42.3008 40.5186 42.4625 40.5539 42.6362 40.5821C42.8145 40.6103 42.9908 40.6455 43.1644 40.6878C43.3428 40.7255 43.5045 40.7795 43.6493 40.8499C43.7987 40.9159 43.917 41.0121 44.0039 41.139C44.0954 41.2613 44.1414 41.4234 44.1414 41.6254C44.1414 41.8414 44.0788 42.0296 43.9532 42.1893C43.8327 42.3444 43.654 42.4667 43.4177 42.5558C43.1861 42.6404 42.9039 42.6827 42.571 42.6827ZM49.9761 38.9114C50.2848 38.9114 50.5525 38.9703 50.7794 39.0876C51.0109 39.2004 51.1893 39.3742 51.3149 39.6093C51.4451 39.8444 51.5103 40.1404 51.5103 40.4975V42.6475H50.9965V40.5468C50.9965 40.1567 50.8999 39.8631 50.707 39.6657C50.5189 39.4637 50.2511 39.3626 49.9038 39.3626C49.6432 39.3626 49.4164 39.4165 49.2235 39.5247C49.0354 39.628 48.8881 39.7809 48.7821 39.9829C48.6808 40.1803 48.6301 40.4199 48.6301 40.7019V42.6475H48.1163V40.5468C48.1163 40.1567 48.0197 39.8631 47.8269 39.6657C47.6337 39.4637 47.3638 39.3626 47.0164 39.3626C46.7606 39.3626 46.5363 39.4165 46.3434 39.5247C46.1502 39.628 46.0008 39.7809 45.8948 39.9829C45.7934 40.1803 45.7428 40.4199 45.7428 40.7019V42.6475H45.229V38.9467H45.7211V39.9476L45.6415 39.7714C45.7573 39.5035 45.9429 39.2945 46.1987 39.144C46.4592 38.989 46.7653 38.9114 47.1177 38.9114C47.4889 38.9114 47.8052 39.0031 48.0657 39.1863C48.3262 39.365 48.4948 39.635 48.5722 39.997L48.3696 39.9195C48.4803 39.6188 48.6757 39.3767 48.9558 39.1934C49.2402 39.0055 49.5803 38.9114 49.9761 38.9114ZM55.4292 42.6475V41.8298L55.4075 41.6958V40.3283C55.4075 40.0136 55.3155 39.7714 55.1325 39.6022C54.9537 39.4331 54.686 39.3485 54.3292 39.3485C54.0832 39.3485 53.8491 39.3883 53.6273 39.4683C53.4051 39.5483 53.217 39.654 53.0628 39.7855L52.8313 39.4119C53.0241 39.2522 53.2557 39.1299 53.526 39.0454C53.7959 38.9562 54.0806 38.9114 54.3799 38.9114C54.872 38.9114 55.2504 39.0313 55.516 39.2709C55.7859 39.506 55.9212 39.8655 55.9212 40.3495V42.6475H55.4292ZM54.1194 42.6827C53.8346 42.6827 53.586 42.638 53.374 42.5488C53.1663 42.4547 53.0071 42.3278 52.8964 42.1681C52.7853 42.0035 52.73 41.8157 52.73 41.6042C52.73 41.4114 52.7755 41.2376 52.8674 41.0826C52.9637 40.9229 53.1182 40.796 53.3306 40.7019C53.5477 40.6032 53.8371 40.5539 54.199 40.5539H55.5088V40.9275H54.2134C53.8465 40.9275 53.5911 40.9909 53.4464 41.1178C53.3063 41.2447 53.2365 41.4022 53.2365 41.5901C53.2365 41.8016 53.3208 41.9708 53.4898 42.0976C53.6584 42.2245 53.895 42.288 54.199 42.288C54.4884 42.288 54.7366 42.2245 54.9443 42.0976C55.1563 41.9662 55.3108 41.778 55.4075 41.5337L55.5232 41.8791C55.4266 42.1234 55.2577 42.3186 55.0167 42.4642C54.78 42.6098 54.4812 42.6827 54.1194 42.6827ZM57.4612 42.6475V38.9467H57.9532V39.9547L57.9026 39.7785C58.009 39.4965 58.1873 39.2826 58.4381 39.137C58.6892 38.9865 59.0004 38.9114 59.3716 38.9114V39.3978C59.3524 39.3978 59.3332 39.3978 59.3137 39.3978C59.2945 39.3932 59.2753 39.3908 59.2558 39.3908C58.8556 39.3908 58.5419 39.5106 58.3151 39.7503C58.0886 39.9854 57.9749 40.3213 57.9749 40.7583V42.6475H57.4612ZM61.8179 42.6827C61.4608 42.6827 61.1858 42.5886 60.9929 42.4008C60.7997 42.2129 60.7035 41.9471 60.7035 41.6042V38.129H61.2172V41.576C61.2172 41.7921 61.2726 41.9591 61.3837 42.0765C61.4995 42.1939 61.6634 42.2527 61.8758 42.2527C62.1023 42.2527 62.2904 42.1893 62.4402 42.0624L62.6211 42.4219C62.5198 42.5111 62.3968 42.577 62.2521 42.6193C62.112 42.6616 61.9673 42.6827 61.8179 42.6827ZM60.0232 39.3626V38.9467H62.3751V39.3626H60.0232ZM65.1807 42.6827C64.7848 42.6827 64.4375 42.6027 64.1386 42.4431C63.8394 42.2785 63.6053 42.0554 63.4367 41.7734C63.2677 41.4868 63.1834 41.1601 63.1834 40.7935C63.1834 40.427 63.263 40.1027 63.4222 39.8208C63.5861 39.5388 63.8079 39.3178 64.088 39.1581C64.3723 38.9935 64.6908 38.9114 65.0432 38.9114C65.3999 38.9114 65.7162 38.9914 65.9911 39.1511C66.2708 39.3062 66.4905 39.5272 66.6497 39.8137C66.8089 40.0957 66.8885 40.4224 66.8885 40.7935C66.8885 40.8172 66.8859 40.8429 66.8812 40.8711C66.8812 40.8947 66.8812 40.9204 66.8812 40.9486H63.5742V40.575H66.6062L66.4036 40.7231C66.4036 40.4552 66.3432 40.218 66.2227 40.0111C66.1069 39.7996 65.9477 39.635 65.7451 39.5176C65.5425 39.4003 65.3084 39.3414 65.0432 39.3414C64.7827 39.3414 64.5486 39.4003 64.3412 39.5176C64.1335 39.635 63.9722 39.7996 63.8564 40.0111C63.7406 40.2226 63.6827 40.4647 63.6827 40.7372V40.8147C63.6827 41.0967 63.7453 41.3459 63.8709 41.5619C64.0011 41.7734 64.1795 41.9401 64.4064 42.0624C64.6379 42.1798 64.9006 42.2386 65.1951 42.2386C65.4267 42.2386 65.6413 42.1988 65.8392 42.1188C66.0418 42.0388 66.2155 41.9168 66.3602 41.7522L66.6497 42.0765C66.4807 42.2739 66.2683 42.4244 66.0129 42.5276C65.7618 42.6309 65.4846 42.6827 65.1807 42.6827ZM68.0789 42.6475V38.9467H68.5709V39.9547L68.5203 39.7785C68.6263 39.4965 68.805 39.2826 69.0558 39.137C69.3065 38.9865 69.6177 38.9114 69.9893 38.9114V39.3978C69.9701 39.3978 69.9506 39.3978 69.9314 39.3978C69.9122 39.3932 69.8927 39.3908 69.8735 39.3908C69.473 39.3908 69.1596 39.5106 68.9328 39.7503C68.7059 39.9854 68.5927 40.3213 68.5927 40.7583V42.6475H68.0789ZM71.108 42.6827C71.002 42.6827 70.9101 42.645 70.8331 42.5699C70.7607 42.4949 70.7245 42.4032 70.7245 42.295C70.7245 42.1822 70.7607 42.0906 70.8331 42.0201C70.9101 41.9496 71.002 41.9144 71.108 41.9144C71.2141 41.9144 71.3034 41.9496 71.3758 42.0201C71.4529 42.0906 71.4916 42.1822 71.4916 42.295C71.4916 42.4032 71.4529 42.4949 71.3758 42.5699C71.3034 42.645 71.2141 42.6827 71.108 42.6827ZM76.2796 42.6898C75.9033 42.6898 75.5415 42.6309 75.1941 42.5135C74.8515 42.3912 74.5863 42.2362 74.3981 42.0483L74.608 41.6465C74.7863 41.8157 75.0251 41.9591 75.3244 42.0765C75.6283 42.1893 75.9467 42.2457 76.2796 42.2457C76.598 42.2457 76.856 42.208 77.0539 42.1329C77.2565 42.0529 77.4034 41.9471 77.4953 41.8157C77.5916 41.6842 77.64 41.5383 77.64 41.3786C77.64 41.1858 77.5822 41.0308 77.4664 40.9134C77.3553 40.796 77.208 40.7044 77.025 40.6385C76.8415 40.568 76.6389 40.507 76.4171 40.4552C76.1949 40.4034 75.9731 40.3494 75.7513 40.2931C75.5292 40.2321 75.3244 40.1521 75.1362 40.0534C74.9528 39.9547 74.8034 39.8253 74.6876 39.6657C74.5765 39.5011 74.5211 39.2875 74.5211 39.0242C74.5211 38.78 74.5863 38.5565 74.7165 38.3545C74.8515 38.1476 75.0566 37.9834 75.3316 37.8611C75.6066 37.7342 75.9587 37.6708 76.3881 37.6708C76.6725 37.6708 76.9548 37.7106 77.2348 37.7906C77.5145 37.8657 77.7558 37.9714 77.9585 38.1078L77.7775 38.5237C77.5604 38.3827 77.3289 38.2795 77.0828 38.2135C76.8415 38.1476 76.6074 38.1149 76.3809 38.1149C76.077 38.1149 75.8259 38.1547 75.6283 38.2347C75.4304 38.3147 75.2831 38.4226 75.1869 38.559C75.095 38.6904 75.0494 38.8409 75.0494 39.0101C75.0494 39.2029 75.1048 39.358 75.2158 39.4754C75.3316 39.5927 75.481 39.6844 75.6645 39.7503C75.8526 39.8162 76.0574 39.8747 76.2796 39.9265C76.5014 39.9783 76.721 40.0347 76.9381 40.0957C77.1599 40.1567 77.3625 40.2367 77.546 40.3354C77.7341 40.4295 77.8836 40.5563 77.9946 40.716C78.1104 40.8757 78.1683 41.085 78.1683 41.3434C78.1683 41.5831 78.1006 41.8062 77.9657 42.0131C77.8304 42.215 77.623 42.3796 77.3434 42.5065C77.0684 42.6288 76.7138 42.6898 76.2796 42.6898ZM81.7518 42.6475V41.8298L81.7301 41.6958V40.3283C81.7301 40.0136 81.6386 39.7714 81.4551 39.6022C81.2767 39.4331 81.009 39.3485 80.6519 39.3485C80.4058 39.3485 80.1721 39.3883 79.9499 39.4683C79.7281 39.5483 79.54 39.654 79.3855 39.7855L79.1539 39.4119C79.3471 39.2522 79.5787 39.1299 79.8486 39.0454C80.1189 38.9562 80.4037 38.9114 80.7025 38.9114C81.1946 38.9114 81.5734 39.0313 81.8386 39.2709C82.1089 39.506 82.2439 39.8655 82.2439 40.3495V42.6475H81.7518ZM80.442 42.6827C80.1576 42.6827 79.909 42.638 79.6967 42.5488C79.4893 42.4547 79.3301 42.3278 79.219 42.1681C79.1083 42.0035 79.0526 41.8157 79.0526 41.6042C79.0526 41.4114 79.0986 41.2376 79.1901 41.0826C79.2867 40.9229 79.4412 40.796 79.6532 40.7019C79.8703 40.6032 80.1598 40.5539 80.5216 40.5539H81.8314V40.9275H80.5361C80.1696 40.9275 79.9137 40.9909 79.769 41.1178C79.6294 41.2447 79.5592 41.4022 79.5592 41.5901C79.5592 41.8016 79.6438 41.9708 79.8124 42.0976C79.9814 42.2245 80.2177 42.288 80.5216 42.288C80.8111 42.288 81.0596 42.2245 81.267 42.0976C81.4794 41.9662 81.6339 41.778 81.7301 41.5337L81.8459 41.8791C81.7496 42.1234 81.5807 42.3186 81.3393 42.4642C81.1031 42.6098 80.8038 42.6827 80.442 42.6827ZM84.6905 42.6475L83.0044 38.9467H83.5399L85.0885 42.3796H84.8353L86.4056 38.9467H86.9121L85.2188 42.6475H84.6905ZM89.2882 42.6827C88.8924 42.6827 88.545 42.6027 88.2462 42.4431C87.947 42.2785 87.7129 42.0554 87.5442 41.7734C87.3753 41.4868 87.291 41.1601 87.291 40.7935C87.291 40.427 87.3706 40.1027 87.5298 39.8208C87.6937 39.5388 87.9155 39.3178 88.1955 39.1581C88.4799 38.9935 88.7983 38.9114 89.1507 38.9114C89.5075 38.9114 89.8237 38.9914 90.0987 39.1511C90.3784 39.3062 90.598 39.5272 90.7572 39.8137C90.9164 40.0957 90.996 40.4224 90.996 40.7935C90.996 40.8172 90.9935 40.8429 90.9888 40.8711C90.9888 40.8947 90.9888 40.9204 90.9888 40.9486H87.6817V40.575H90.7138L90.5112 40.7231C90.5112 40.4552 90.4508 40.218 90.3303 40.0111C90.2145 39.7996 90.0553 39.635 89.8527 39.5176C89.65 39.4003 89.416 39.3414 89.1507 39.3414C88.8902 39.3414 88.6561 39.4003 88.4488 39.5176C88.2411 39.635 88.0797 39.7996 87.964 40.0111C87.8482 40.2226 87.7903 40.4647 87.7903 40.7372V40.8147C87.7903 41.0967 87.8529 41.3459 87.9784 41.5619C88.1087 41.7734 88.2871 41.9401 88.5139 42.0624C88.7455 42.1798 89.0082 42.2386 89.3027 42.2386C89.5343 42.2386 89.7488 42.1988 89.9467 42.1188C90.1494 42.0388 90.323 41.9168 90.4678 41.7522L90.7572 42.0765C90.5883 42.2739 90.3759 42.4244 90.1204 42.5276C89.8693 42.6309 89.5922 42.6827 89.2882 42.6827ZM96.1864 42.6827C95.8535 42.6827 95.5543 42.6098 95.2891 42.4642C95.0235 42.3137 94.8136 42.0976 94.6595 41.8157C94.505 41.5337 94.4279 41.1929 94.4279 40.7935C94.4279 40.3893 94.505 40.0488 94.6595 39.7714C94.8187 39.4894 95.0307 39.2755 95.2963 39.1299C95.5615 38.9844 95.8582 38.9114 96.1864 38.9114C96.5482 38.9114 96.8713 38.9914 97.1561 39.1511C97.4455 39.3062 97.672 39.5247 97.8363 39.8067C98.0002 40.0886 98.0823 40.4175 98.0823 40.7935C98.0823 41.1647 98.0002 41.4939 97.8363 41.7804C97.672 42.0624 97.4455 42.2834 97.1561 42.4431C96.8713 42.6027 96.5482 42.6827 96.1864 42.6827ZM94.2253 42.6475V37.417H94.7391V40.0393L94.6667 40.7865L94.7174 41.5337V42.6475H94.2253ZM96.1502 42.2386C96.4201 42.2386 96.6615 42.1798 96.8739 42.0624C97.0859 41.9401 97.2549 41.7709 97.3804 41.5549C97.5056 41.3339 97.5686 41.0801 97.5686 40.7935C97.5686 40.5021 97.5056 40.2483 97.3804 40.0322C97.2549 39.8162 97.0859 39.6491 96.8739 39.5317C96.6615 39.4094 96.4201 39.3485 96.1502 39.3485C95.8799 39.3485 95.6364 39.4094 95.419 39.5317C95.2069 39.6491 95.038 39.8162 94.9128 40.0322C94.7919 40.2483 94.7319 40.5021 94.7319 40.7935C94.7319 41.0801 94.7919 41.3339 94.9128 41.5549C95.038 41.7709 95.2069 41.9401 95.419 42.0624C95.6364 42.1798 95.8799 42.2386 96.1502 42.2386ZM100.888 42.6827C100.492 42.6827 100.145 42.6027 99.8459 42.4431C99.547 42.2785 99.3129 42.0554 99.1439 41.7734C98.9753 41.4868 98.8907 41.1601 98.8907 40.7935C98.8907 40.427 98.9703 40.1027 99.1295 39.8208C99.2937 39.5388 99.5155 39.3178 99.7952 39.1581C100.08 38.9935 100.398 38.9114 100.75 38.9114C101.108 38.9114 101.423 38.9914 101.698 39.1511C101.978 39.3062 102.198 39.5272 102.357 39.8137C102.516 40.0957 102.596 40.4224 102.596 40.7935C102.596 40.8172 102.594 40.8429 102.588 40.8711C102.588 40.8947 102.588 40.9204 102.588 40.9486H99.2814V40.575H102.314L102.111 40.7231C102.111 40.4552 102.051 40.218 101.93 40.0111C101.814 39.7996 101.655 39.635 101.452 39.5176C101.25 39.4003 101.016 39.3414 100.75 39.3414C100.49 39.3414 100.256 39.4003 100.048 39.5176C99.8412 39.635 99.6794 39.7996 99.5636 40.0111C99.4479 40.2226 99.39 40.4647 99.39 40.7372V40.8147C99.39 41.0967 99.4529 41.3459 99.5781 41.5619C99.7084 41.7734 99.8871 41.9401 100.114 42.0624C100.345 42.1798 100.608 42.2386 100.902 42.2386C101.134 42.2386 101.349 42.1988 101.546 42.1188C101.749 42.0388 101.923 41.9168 102.067 41.7522L102.357 42.0765C102.188 42.2739 101.976 42.4244 101.72 42.5276C101.469 42.6309 101.192 42.6827 100.888 42.6827ZM104.988 42.6827C104.631 42.6827 104.356 42.5886 104.163 42.4008C103.97 42.2129 103.873 41.9471 103.873 41.6042V38.129H104.387V41.576C104.387 41.7921 104.442 41.9591 104.554 42.0765C104.669 42.1939 104.833 42.2527 105.046 42.2527C105.272 42.2527 105.46 42.1893 105.61 42.0624L105.791 42.4219C105.69 42.5111 105.567 42.577 105.422 42.6193C105.282 42.6616 105.137 42.6827 104.988 42.6827ZM103.193 39.3626V38.9467H105.545V39.3626H103.193ZM107.973 42.6827C107.616 42.6827 107.341 42.5886 107.148 42.4008C106.955 42.2129 106.859 41.9471 106.859 41.6042V38.129H107.373V41.576C107.373 41.7921 107.428 41.9591 107.539 42.0765C107.655 42.1939 107.819 42.2527 108.031 42.2527C108.258 42.2527 108.446 42.1893 108.595 42.0624L108.776 42.4219C108.675 42.5111 108.552 42.577 108.407 42.6193C108.267 42.6616 108.123 42.6827 107.973 42.6827ZM106.179 39.3626V38.9467H108.53V39.3626H106.179ZM111.336 42.6827C110.94 42.6827 110.593 42.6027 110.294 42.4431C109.995 42.2785 109.761 42.0554 109.592 41.7734C109.423 41.4868 109.339 41.1601 109.339 40.7935C109.339 40.427 109.418 40.1027 109.577 39.8208C109.741 39.5388 109.964 39.3178 110.243 39.1581C110.528 38.9935 110.846 38.9114 111.198 38.9114C111.556 38.9114 111.871 38.9914 112.146 39.1511C112.426 39.3062 112.646 39.5272 112.805 39.8137C112.964 40.0957 113.044 40.4224 113.044 40.7935C113.044 40.8172 113.041 40.8429 113.037 40.8711C113.037 40.8947 113.037 40.9204 113.037 40.9486H109.729V40.575H112.762L112.559 40.7231C112.559 40.4552 112.498 40.218 112.378 40.0111C112.262 39.7996 112.103 39.635 111.9 39.5176C111.698 39.4003 111.464 39.3414 111.198 39.3414C110.938 39.3414 110.704 39.4003 110.497 39.5176C110.289 39.635 110.127 39.7996 110.012 40.0111C109.896 40.2226 109.838 40.4647 109.838 40.7372V40.8147C109.838 41.0967 109.901 41.3459 110.026 41.5619C110.156 41.7734 110.335 41.9401 110.562 42.0624C110.793 42.1798 111.056 42.2386 111.35 42.2386C111.582 42.2386 111.797 42.1988 111.994 42.1188C112.197 42.0388 112.371 41.9168 112.515 41.7522L112.805 42.0765C112.636 42.2739 112.424 42.4244 112.168 42.5276C111.917 42.6309 111.64 42.6827 111.336 42.6827ZM114.234 42.6475V38.9467H114.726V39.9547L114.676 39.7785C114.782 39.4965 114.96 39.2826 115.211 39.137C115.462 38.9865 115.773 38.9114 116.145 38.9114V39.3978C116.125 39.3978 116.106 39.3978 116.087 39.3978C116.067 39.3932 116.048 39.3908 116.029 39.3908C115.629 39.3908 115.315 39.5106 115.088 39.7503C114.862 39.9854 114.748 40.3213 114.748 40.7583V42.6475H114.234ZM117.263 42.6827C117.157 42.6827 117.066 42.645 116.988 42.5699C116.916 42.4949 116.88 42.4032 116.88 42.295C116.88 42.1822 116.916 42.0906 116.988 42.0201C117.066 41.9496 117.157 41.9144 117.263 41.9144C117.37 41.9144 117.459 41.9496 117.531 42.0201C117.609 42.0906 117.647 42.1822 117.647 42.295C117.647 42.4032 117.609 42.4949 117.531 42.5699C117.459 42.645 117.37 42.6827 117.263 42.6827Z" fill="#333333"/>
</g>
<defs>
<clipPath id="clip0_2092_1447">
<rect width="127" height="43" fill="white"/>
</clipPath>
</defs>
</svg>
